PathFileType	4	(X/Y/Z)	s01c0101.trc
DataRate	CameraRate	NumFrames	NumMarkers	Units	OrigDataRate	OrigDataStartFrame	OrigNumFrames
200	200	6	47	mm	200	750	2000
Frame#	Time	racr			lacr			c7			jug			rlel			rdr			llel			ldr			s2			lic			ric			lasi			rasi			rpsi			lpsi			rgt			lgt			rth1			rth2			rth3			rth4			rlfc			rsh1			rsh2			rsh3			rsh4			rlmal			rmmal			rcal			rtoe			rmt5			lth1			lth2			lth4			lth3			llfc			lsh1			lsh2			lsh3			lsh4			llmal			lcal			ltoe			lmt5			SBIKE			LBIKE			RBIKE			
		X1	Y1	Z1	X2	Y2	Z2	X3	Y3	Z3	X4	Y4	Z4	X5	Y5	Z5	X6	Y6	Z6	X7	Y7	Z7	X8	Y8	Z8	X9	Y9	Z9	X10	Y10	Z10	X11	Y11	Z11	X12	Y12	Z12	X13	Y13	Z13	X14	Y14	Z14	X15	Y15	Z15	X16	Y16	Z16	X17	Y17	Z17	X18	Y18	Z18	X19	Y19	Z19	X20	Y20	Z20	X21	Y21	Z21	X22	Y22	Z22	X23	Y23	Z23	X24	Y24	Z24	X25	Y25	Z25	X26	Y26	Z26	X27	Y27	Z27	X28	Y28	Z28	X29	Y29	Z29	X30	Y30	Z30	X31	Y31	Z31	X32	Y32	Z32	X33	Y33	Z33	X34	Y34	Z34	X35	Y35	Z35	X36	Y36	Z36	X37	Y37	Z37	X38	Y38	Z38	X39	Y39	Z39	X40	Y40	Z40	X41	Y41	Z41	X42	Y42	Z42	X43	Y43	Z43	X44	Y44	Z44	X45	Y45	Z45	X46	Y46	Z46	X47	Y47	Z47	
750	3.7500	485.706116	1348.703857	-123.322098	526.732483	1298.219727	-419.386353	450.067108	1397.038574	-281.826385	463.725037	1228.664917	-265.682312	540.242493	1080.128418	-11.574081	713.750793	874.691650	-58.293785	553.317566	1037.629639	-546.053345	718.037354	860.940796	-446.701111	-65.518311	1162.494873	-279.941406	102.602417	1160.027222	-452.053253	91.067986	1190.123169	-117.485352	107.523483	1107.167236	-421.460205	120.434738	1141.550171	-148.579636	-40.100590	1210.036011	-231.953415	-40.149696	1201.991577	-337.531006	49.785847	1084.163818	-83.397110	51.457348	1018.389893	-458.072205	163.904770	1006.600769	-65.511398	239.266617	972.429626	-68.112244	318.164642	928.779236	-77.385910	263.872284	1019.661438	-87.025948	396.289337	844.294434	-97.794235	359.812164	730.670044	-66.335632	342.079926	647.844055	-70.809662	314.876862	563.698120	-80.498085	387.201263	637.628479	-109.570381	269.818817	447.977814	-93.954208	306.752319	463.183044	-176.219788	222.676666	413.682281	-149.236267	493.234039	408.503906	-127.546684	389.854248	370.913757	-60.464237	123.826500	914.407043	-463.889832	194.639694	864.284973	-452.345917	226.630264	907.240540	-448.748047	258.132446	808.953125	-436.960144	315.133057	717.464050	-416.857452	231.044754	646.654968	-450.301636	177.949356	579.820679	-443.811798	119.572243	516.766785	-428.536591	218.845673	549.412476	-409.396088	35.368233	424.090576	-412.697235	-20.516333	421.446564	-368.357300	191.749786	240.552582	-373.704559	94.180481	285.225800	-439.474976	-223.506744	893.887878	-250.947937	-12.187466	84.084213	-453.762909	-20.241652	80.755089	-53.845325	
751	3.7550	486.123840	1348.594482	-122.933769	527.322876	1297.570801	-418.733917	450.193268	1396.681641	-281.107574	464.180481	1228.408203	-265.208832	540.684387	1079.795410	-11.094675	713.835266	874.359436	-58.247810	553.624634	1037.831787	-546.928711	718.130554	860.899780	-446.992767	-65.528000	1161.570801	-278.242249	102.545181	1159.389038	-451.240814	91.116074	1187.602417	-116.196831	107.365646	1106.887329	-420.706665	120.789505	1140.166870	-147.899017	-39.804913	1208.777832	-230.151794	-40.621658	1201.872559	-335.610382	50.525719	1081.533936	-82.487877	51.921265	1019.040833	-457.614990	164.005310	1002.155701	-65.120338	238.531372	966.194580	-67.909485	316.337311	920.623474	-77.776207	264.290253	1012.970276	-86.762596	392.818207	834.841614	-97.937263	357.745544	721.265503	-66.214622	341.613373	638.066162	-70.468941	316.020325	553.361877	-80.006569	386.495361	628.374390	-109.738052	272.464874	436.512817	-93.353966	309.628204	452.048889	-175.960999	225.396591	402.788147	-148.801331	496.068604	397.561554	-127.557503	392.958588	359.725189	-60.454014	125.871910	916.326233	-464.098938	196.977036	867.046448	-453.108246	228.481476	910.365112	-449.152130	260.840881	812.224365	-437.994843	319.791901	722.412048	-418.032104	234.640182	653.772339	-451.326721	179.081985	587.991943	-443.364746	121.075233	525.877991	-428.788269	220.874084	556.580872	-410.149200	35.039497	435.200287	-412.777771	-21.128035	433.361664	-368.297546	189.000153	249.932922	-373.655426	91.959480	295.729523	-439.376923	-223.453979	893.895813	-250.915970	-12.166985	84.092201	-453.764618	-20.235004	80.766266	-53.829731	
752	3.7600	486.585846	1348.504395	-122.423439	527.874207	1296.741455	-418.098663	450.368439	1396.334595	-280.326538	464.695831	1228.332153	-264.131592	541.226929	1079.429077	-10.563643	713.876038	874.016846	-58.149624	553.958557	1037.877808	-547.761597	718.142273	860.916565	-447.309631	-65.509933	1160.677734	-276.448029	102.313286	1158.533081	-450.020721	91.197083	1185.066040	-114.803696	107.198135	1106.680542	-419.804199	121.068344	1139.010864	-146.562454	-39.473003	1207.525269	-228.277390	-41.020847	1201.447510	-333.493500	51.367149	1078.832886	-81.463089	52.281494	1019.965271	-457.137085	164.071732	997.754822	-64.735413	237.824738	959.854736	-67.777702	314.137756	912.371399	-78.258865	264.532349	1006.068542	-86.492104	389.225159	825.824829	-98.362427	355.238190	712.065369	-66.065346	340.727478	628.479980	-70.152687	316.634369	543.343811	-79.459274	385.794983	619.669983	-109.216393	274.446777	425.322510	-92.846947	312.072876	441.491150	-175.133560	227.609558	392.232758	-148.330765	498.306152	386.384705	-127.595268	395.217163	348.651947	-60.384251	127.964104	918.461182	-464.344666	199.449448	870.156128	-454.083740	230.491058	914.034973	-450.277771	264.258179	816.322754	-439.958557	324.963501	728.142578	-419.362518	238.599182	661.092041	-452.200653	182.031769	596.119690	-444.063202	122.981392	535.155701	-429.042236	223.382309	564.369080	-410.632782	35.379570	446.516785	-412.833740	-21.037149	445.315521	-368.210205	186.925354	259.410828	-373.643250	90.371796	306.287079	-439.310730	-223.421234	893.890259	-250.843658	-12.158314	84.088196	-453.741150	-20.228561	80.735435	-53.836281	
753	3.7650	486.946167	1348.388916	-121.868401	528.408691	1295.866455	-417.349335	450.602844	1396.057007	-279.433319	464.996796	1228.044556	-263.531555	541.704102	1079.030884	-10.017646	713.996460	873.691833	-58.143982	554.316711	1037.775879	-548.433899	718.142700	861.001770	-447.594116	-65.688301	1159.989014	-274.397308	102.207146	1158.098267	-449.109833	91.270493	1182.651489	-113.308197	107.066460	1106.545044	-418.877289	121.507927	1137.616333	-145.567642	-39.098660	1206.320557	-226.098755	-41.375481	1201.067139	-331.228149	52.090744	1076.217163	-80.386665	52.583927	1020.918823	-456.596802	163.894348	993.254333	-64.284668	236.553650	953.515625	-67.747856	311.656342	904.086121	-78.768555	264.489868	999.145874	-86.082008	385.400330	817.038452	-98.803185	352.361267	702.880798	-65.861572	339.189209	619.069275	-69.750816	316.589447	533.493652	-79.045029	384.560425	611.088928	-108.623650	275.669617	414.642822	-92.487892	313.480927	430.352936	-174.902786	229.319626	381.974487	-147.918762	499.990967	375.004822	-127.498138	396.995453	337.483643	-60.319618	130.113297	920.831299	-464.596344	202.394516	873.895081	-455.173950	232.663559	918.355286	-451.095581	268.604645	821.232117	-441.737640	330.605896	734.872803	-420.608429	243.008667	668.584106	-453.154724	185.184555	604.823364	-444.606720	125.212860	544.773376	-429.267181	226.322266	572.398071	-411.387543	36.365814	457.781494	-412.840790	-20.236858	457.420471	-368.189392	185.548599	269.049072	-373.583099	89.499733	317.036072	-439.193726	-223.383057	893.891968	-250.763031	-12.163384	84.099045	-453.767456	-20.235281	80.717361	-53.825745	
754	3.7700	488.690460	1348.617676	-120.802254	528.846436	1295.028687	-416.659393	450.878021	1395.877686	-278.625031	465.139160	1227.742188	-262.902161	542.247986	1078.502686	-9.484812	714.247925	873.303894	-58.207657	554.703186	1037.527954	-548.897766	718.106567	861.119080	-447.771515	-65.709816	1159.204712	-272.232056	101.769653	1157.572144	-447.759033	91.271187	1180.362427	-111.860268	106.187416	1106.518555	-417.642487	121.962837	1136.225464	-144.538757	-38.783276	1205.315063	-223.937714	-41.510441	1200.814697	-329.134338	52.928883	1073.549194	-79.301018	52.780499	1022.154175	-455.997711	163.415054	988.688293	-63.827053	235.017120	947.156494	-67.682465	308.711029	895.956848	-78.679642	264.104034	992.230469	-85.524452	381.331726	808.413452	-99.175690	349.100708	693.755493	-65.555466	337.280243	609.845581	-69.496948	316.067383	523.822205	-78.662392	382.706787	602.591064	-108.243835	276.199768	404.543854	-92.359604	314.237823	419.944092	-174.404938	230.505447	372.083954	-147.533997	501.123566	363.349731	-127.324097	398.007050	326.495148	-60.279449	132.320084	923.463623	-464.828064	205.901917	878.098450	-456.413391	234.846390	923.533081	-451.974121	273.572510	827.203369	-443.376099	336.590576	742.587952	-421.957184	247.212250	676.686584	-454.017761	188.581131	613.428589	-444.766418	127.800095	554.451416	-429.490814	229.497177	580.513794	-412.233032	37.881416	469.118896	-412.930817	-18.842266	469.492126	-368.103149	184.813721	278.844696	-373.548340	89.380051	327.903839	-439.127014	-223.388214	893.878784	-250.663437	-12.167149	84.076591	-453.743774	-20.259556	80.700806	-53.797653	
755	3.7750	489.155609	1348.259888	-119.980988	529.216614	1294.188477	-416.058380	451.222717	1395.752930	-277.747314	465.196625	1227.458374	-262.343353	542.932007	1077.844971	-9.050905	714.442566	872.830200	-58.181019	555.042114	1037.233398	-549.224182	718.043884	861.257324	-447.872559	-65.591682	1158.494385	-270.074982	101.585060	1157.300903	-446.694244	91.450607	1178.420166	-110.315956	105.976227	1106.549072	-416.579590	122.421318	1134.960449	-143.224167	-38.256386	1204.256958	-221.847855	-41.426037	1200.388184	-326.951233	53.638634	1071.060181	-78.235718	52.955315	1023.357910	-455.339813	162.646942	984.028748	-63.331856	233.198441	940.778687	-67.551971	305.874481	887.754883	-78.864792	263.381042	985.117554	-85.126038	377.209503	799.581543	-99.441071	345.686005	684.744141	-65.341072	335.062347	600.586487	-69.162865	314.952301	514.308838	-78.416649	380.655457	593.857300	-107.937004	276.226898	394.558411	-92.387589	315.298676	410.276642	-173.517258	231.138962	362.638733	-147.108444	501.750793	351.473022	-127.250542	398.455017	315.461365	-60.273785	134.572098	926.390625	-465.020935	209.790741	882.981140	-457.644897	237.288605	929.298523	-452.471161	279.327271	834.418396	-444.691833	342.853210	750.866638	-423.250610	251.810837	684.799622	-455.054596	192.345032	622.391174	-445.408630	130.795013	564.370422	-429.765442	232.998932	589.025391	-413.040344	40.222248	480.338684	-412.975159	-16.914474	481.526154	-368.103088	184.807388	288.666779	-373.455017	90.003571	338.835663	-439.001862	-223.386169	893.876709	-250.537247	-12.148704	84.094528	-453.707794	-20.226181	80.690475	-53.795647	
